<!DOCTYPE svg PUBLIC "-//W3C//DTD SVG 20010904//EN" "http://www.w3.org/TR/2001/REC-SVG-20010904/DTD/svg10.dtd">
<svg version="1.0" xmlns="http://www.w3.org/2000/svg" width="100px" height="100px" viewBox="0 0 1000 1000" preserveAspectRatio="xMidYMid meet">
<g id="layer1" fill="#666666" stroke="none">
 <path d="M26 974 l-26 -27 0 -447 0 -447 26 -27 27 -26 447 0 447 0 27 26 26 27 0 447 0 447 -26 27 -27 26 -447 0 -447 0 -27 -26z m832 -331 c2 -203 2 -213 -17 -213 -16 0 -19 10 -23 83 -7 125 -61 212 -170 273 -48 26 -62 29 -148 29 -106 0 -147 -15 -219 -80 -63 -57 -94 -127 -99 -222 -4 -73 -7 -83 -23 -83 -18 0 -19 11 -19 208 0 115 3 212 7 215 4 4 164 6 357 5 l351 -3 3 -212z m-270 10 c65 -31 105 -129 81 -200 -18 -57 -38 -82 -83 -105 -121 -63 -259 18 -259 152 0 136 132 214 261 153z m267 -443 l0 -65 -65 0 -65 0 -3 53 c-4 72 7 84 77 80 l56 -3 0 -65z"/>
 </g>

</svg>