<!DOCTYPE svg PUBLIC "-//W3C//DTD SVG 20010904//EN" "http://www.w3.org/TR/2001/REC-SVG-20010904/DTD/svg10.dtd">
<svg version="1.0" xmlns="http://www.w3.org/2000/svg" width="1104px" height="1600px" viewBox="0 0 11040 16000" preserveAspectRatio="xMidYMid meet">
<g id="layer1" fill="#ffffff" stroke="none">
 <path d="M5476 15961 c-14 -22 -30 -42 -36 -46 -5 -3 -10 -13 -10 -20 0 -8 -19 -43 -42 -78 -55 -82 -98 -150 -123 -196 -11 -21 -30 -50 -41 -67 -12 -16 -32 -47 -45 -69 -46 -76 -84 -139 -126 -203 -24 -36 -43 -67 -43 -70 0 -2 -20 -35 -45 -73 -25 -38 -45 -71 -45 -74 0 -4 -18 -32 -40 -62 -22 -31 -40 -60 -40 -64 0 -11 -58 -97 -71 -104 -5 -4 -9 -13 -9 -20 0 -8 -19 -44 -42 -79 -66 -98 -122 -189 -130 -207 -4 -10 -23 -39 -42 -67 -20 -27 -36 -54 -36 -59 0 -5 -17 -34 -38 -64 -21 -30 -53 -79 -70 -110 -18 -31 -39 -62 -47 -69 -8 -7 -15 -19 -15 -27 0 -9 -15 -36 -34 -62 -18 -25 -41 -62 -51 -81 -9 -19 -25 -44 -35 -55 -10 -11 -30 -42 -45 -70 -15 -27 -40 -69 -56 -93 -16 -24 -29 -46 -29 -49 0 -3 -20 -36 -44 -72 -40 -61 -80 -125 -116 -189 -9 -15 -32 -53 -53 -85 -20 -31 -37 -60 -37 -63 0 -4 -15 -27 -33 -53 -19 -25 -50 -76 -70 -112 -20 -36 -43 -72 -52 -79 -8 -7 -15 -18 -15 -25 0 -7 -19 -42 -42 -78 -24 -36 -61 -95 -83 -132 -22 -36 -59 -95 -82 -132 -24 -36 -43 -71 -43 -78 0 -7 -7 -18 -15 -25 -9 -7 -35 -47 -59 -89 -23 -42 -53 -92 -65 -111 -92 -143 -111 -174 -111 -182 0 -4 -17 -34 -39 -66 -21 -31 -48 -75 -59 -98 -11 -22 -27 -46 -35 -53 -8 -6 -21 -26 -28 -44 -7 -18 -30 -58 -51 -89 -21 -31 -38 -61 -38 -66 0 -4 -13 -26 -29 -48 -15 -21 -43 -66 -61 -99 -18 -33 -38 -67 -45 -75 -7 -8 -25 -37 -40 -65 -15 -27 -38 -64 -51 -82 -13 -17 -24 -36 -24 -42 0 -6 -20 -42 -45 -80 -25 -38 -45 -72 -45 -75 0 -4 -18 -33 -40 -65 -22 -32 -40 -61 -40 -65 0 -4 -18 -35 -40 -70 -22 -35 -40 -67 -40 -71 0 -4 -20 -38 -45 -75 -25 -37 -45 -71 -45 -74 0 -3 -18 -33 -40 -65 -22 -32 -40 -61 -40 -65 0 -4 -17 -33 -37 -64 -20 -31 -44 -69 -53 -84 -49 -88 -116 -197 -137 -224 -12 -17 -23 -34 -23 -38 0 -4 -19 -35 -42 -69 -24 -34 -49 -74 -58 -89 -42 -76 -87 -148 -117 -189 -18 -26 -33 -50 -33 -54 0 -4 -20 -38 -45 -75 -25 -37 -45 -71 -45 -75 0 -3 -18 -32 -40 -62 -22 -31 -40 -60 -40 -64 0 -11 -58 -97 -71 -104 -5 -4 -9 -13 -9 -21 0 -8 -17 -41 -39 -72 -40 -59 -81 -126 -116 -190 -12 -20 -38 -64 -59 -96 -21 -33 -41 -66 -45 -75 -3 -9 -23 -42 -44 -73 -20 -31 -37 -61 -37 -65 0 -4 -18 -34 -40 -67 -22 -32 -40 -63 -40 -68 0 -5 -20 -41 -45 -79 -25 -38 -45 -74 -45 -80 0 -5 -9 -23 -20 -39 -11 -17 -29 -43 -40 -60 -11 -16 -20 -36 -20 -43 0 -8 -8 -25 -19 -38 -10 -13 -34 -55 -54 -94 -20 -38 -58 -113 -86 -165 -84 -159 -261 -522 -261 -536 0 -5 -18 -44 -40 -87 -22 -43 -40 -85 -40 -93 0 -8 -4 -22 -10 -32 -22 -40 -69 -152 -80 -193 -7 -24 -15 -48 -19 -54 -16 -23 -120 -322 -136 -395 -7 -30 -29 -109 -48 -175 -20 -66 -39 -140 -42 -165 -4 -25 -16 -88 -26 -140 -37 -176 -49 -393 -49 -920 0 -518 4 -599 46 -826 13 -72 24 -142 24 -155 -1 -54 132 -559 197 -749 14 -41 32 -95 41 -120 8 -25 34 -92 58 -150 24 -58 44 -109 44 -113 0 -4 16 -43 36 -85 20 -42 44 -97 54 -122 10 -25 32 -69 49 -98 17 -29 31 -58 31 -65 0 -7 18 -41 40 -77 22 -36 40 -69 40 -75 0 -5 18 -37 40 -70 22 -33 40 -63 40 -67 0 -4 17 -33 37 -64 21 -31 41 -63 46 -70 17 -31 25 -44 86 -137 35 -53 67 -97 72 -97 5 0 9 -7 9 -15 0 -8 15 -32 33 -52 18 -21 62 -76 97 -123 62 -82 153 -193 192 -235 10 -11 56 -60 101 -109 140 -152 204 -216 215 -216 6 0 18 -10 27 -22 22 -33 160 -155 300 -267 66 -53 128 -104 137 -113 10 -10 22 -18 28 -18 5 0 24 -13 42 -29 18 -16 47 -37 64 -47 16 -11 70 -46 119 -79 48 -33 120 -80 159 -103 39 -24 78 -50 87 -58 8 -8 22 -14 31 -14 8 0 26 -9 40 -19 14 -11 58 -37 99 -57 41 -20 85 -45 99 -54 14 -9 81 -43 150 -75 69 -31 157 -72 197 -91 39 -19 77 -34 83 -34 6 0 35 -11 63 -23 91 -41 383 -147 405 -147 7 0 62 -16 123 -36 61 -19 131 -39 157 -44 26 -4 110 -24 187 -43 77 -20 160 -39 185 -42 25 -3 117 -17 205 -30 248 -37 408 -45 840 -45 435 0 580 8 840 46 287 41 479 82 722 155 72 21 138 39 145 39 7 0 60 18 118 40 58 22 113 40 123 40 9 0 25 4 35 10 33 18 183 80 195 80 7 0 48 18 92 40 44 22 85 40 90 40 6 0 46 17 90 39 44 22 91 45 105 50 14 6 50 27 80 46 30 19 61 34 68 35 12 0 23 7 99 58 18 12 37 22 42 22 6 0 39 19 74 42 67 45 142 93 186 118 14 8 47 31 73 50 25 19 85 62 132 94 47 33 98 73 113 88 15 15 32 28 38 28 6 0 29 18 50 40 21 22 43 40 47 40 5 0 30 20 56 44 26 24 100 92 166 152 114 104 286 284 391 409 28 33 58 66 67 73 10 7 18 18 18 24 0 6 19 32 43 58 44 49 178 228 212 284 11 19 33 51 48 72 46 64 117 176 117 184 0 4 8 18 19 31 10 13 31 49 47 79 15 30 42 78 59 105 33 53 205 397 205 409 0 4 20 50 45 103 25 52 45 99 45 105 0 6 18 47 39 92 96 199 131 285 188 461 14 44 42 130 63 190 63 186 123 375 131 413 4 21 15 62 23 92 43 145 46 194 46 754 0 569 -6 683 -46 916 -31 179 -49 259 -86 375 -15 49 -28 97 -28 105 0 9 -14 54 -31 100 -17 47 -39 112 -48 145 -10 33 -32 92 -50 132 -17 40 -31 77 -31 83 0 10 -60 146 -80 182 -6 10 -10 23 -10 29 0 7 -19 50 -41 98 -38 78 -122 254 -139 291 -4 8 -33 65 -65 125 -32 61 -75 143 -96 182 -21 40 -47 86 -58 102 -12 16 -21 34 -21 41 0 6 -13 30 -29 53 -15 23 -44 70 -62 105 -58 107 -73 135 -113 196 -21 32 -41 69 -46 82 -5 12 -25 45 -44 72 -20 27 -36 53 -36 57 0 4 -17 33 -38 64 -21 31 -53 81 -70 112 -18 31 -39 62 -47 69 -8 7 -15 19 -15 27 0 8 -17 40 -38 71 -98 144 -132 198 -132 205 0 4 -18 32 -40 62 -22 30 -40 58 -40 64 0 5 -18 33 -40 62 -22 30 -40 56 -40 60 0 4 -19 35 -42 70 -24 35 -50 76 -58 90 -8 15 -28 47 -44 70 -59 89 -101 154 -105 164 -4 11 -69 113 -133 207 -21 31 -38 64 -38 72 0 8 -4 17 -9 21 -13 7 -71 93 -71 104 0 4 -13 26 -28 47 -16 22 -44 67 -62 99 -18 33 -44 74 -57 91 -12 17 -23 36 -23 42 0 6 -20 40 -45 76 -25 37 -45 71 -45 77 0 6 -10 25 -22 42 -24 32 -71 114 -134 232 -20 39 -50 89 -65 112 -16 23 -29 44 -29 48 0 6 -82 113 -135 177 -16 20 -50 61 -75 92 -25 31 -59 74 -75 94 -34 41 -105 149 -138 211 -40 73 -100 176 -112 191 -7 8 -27 42 -45 75 -18 33 -46 78 -61 99 -16 22 -29 45 -29 52 0 6 -8 22 -19 35 -10 13 -33 51 -51 84 -18 33 -43 78 -57 100 -60 98 -123 209 -123 217 0 5 -9 22 -20 38 -11 17 -29 43 -40 60 -11 16 -20 33 -20 38 0 4 -18 36 -40 70 -22 33 -40 65 -40 70 0 5 -13 27 -29 49 -16 22 -46 71 -66 109 -21 38 -46 80 -56 93 -11 13 -19 29 -19 36 0 7 -8 23 -19 36 -10 13 -31 49 -46 79 -16 30 -41 73 -56 95 -23 35 -48 78 -117 200 -9 17 -36 61 -59 98 -24 37 -43 72 -43 77 0 5 -18 36 -40 69 -22 33 -40 64 -40 69 0 5 -11 26 -25 47 -14 20 -42 67 -62 103 -20 37 -47 81 -60 98 -13 17 -23 36 -23 43 0 6 -9 25 -20 41 -11 17 -29 43 -40 60 -11 16 -20 33 -20 38 0 4 -18 36 -40 70 -22 33 -40 65 -40 69 0 5 -16 33 -36 63 -20 30 -45 73 -56 95 -12 22 -34 59 -49 82 -16 23 -29 46 -29 52 0 5 -13 30 -30 54 -16 24 -42 67 -57 95 -57 105 -106 188 -134 229 -16 23 -29 46 -29 51 0 6 -18 38 -40 71 -22 33 -45 72 -50 85 -5 14 -25 48 -45 75 -19 28 -35 56 -35 62 0 6 -15 34 -34 62 -36 56 -89 145 -121 205 -62 112 -77 132 -101 132 -17 0 -31 -11 -48 -39z m239 -8581 c249 -34 496 -108 695 -205 52 -26 102 -53 110 -60 8 -7 38 -25 65 -40 28 -14 67 -40 87 -56 20 -16 41 -29 46 -29 5 0 24 -15 43 -34 19 -18 43 -38 53 -43 29 -16 286 -275 286 -288 0 -7 9 -20 21 -31 24 -21 149 -201 149 -214 0 -4 18 -38 40 -74 22 -36 40 -70 40 -76 0 -8 43 -102 71 -152 5 -10 9 -26 9 -35 0 -10 10 -43 21 -73 65 -169 105 -450 96 -670 -10 -221 -34 -379 -82 -525 -18 -55 -36 -112 -39 -128 -10 -44 -90 -214 -158 -333 -46 -82 -175 -262 -225 -314 -169 -176 -243 -240 -403 -346 -150 -99 -345 -191 -485 -228 -33 -9 -93 -25 -134 -36 -152 -41 -237 -50 -482 -50 -254 0 -358 12 -541 65 -48 14 -95 25 -106 25 -18 0 -59 14 -127 45 -16 7 -50 20 -75 28 -92 32 -283 136 -409 224 -59 41 -243 202 -250 217 -2 6 -24 31 -48 57 -23 25 -43 50 -43 54 0 5 -12 22 -27 38 -36 36 -106 146 -139 217 -14 30 -36 76 -49 101 -35 71 -105 316 -116 404 -34 302 -37 848 -4 1098 13 108 47 217 77 252 4 5 8 16 8 25 0 17 45 107 66 131 8 8 14 22 14 30 0 15 62 117 117 193 15 21 36 52 45 69 9 16 33 47 53 67 19 19 35 39 35 42 0 16 263 268 279 268 4 0 27 17 53 38 64 52 193 132 211 132 9 0 18 4 22 10 6 10 109 59 165 79 200 71 315 101 475 125 106 17 390 20 490 6z"/>
 </g>

</svg>