<!DOCTYPE svg PUBLIC "-//W3C//DTD SVG 20010904//EN" "http://www.w3.org/TR/2001/REC-SVG-20010904/DTD/svg10.dtd">
<svg version="1.0" xmlns="http://www.w3.org/2000/svg" width="68px" height="100px" viewBox="0 0 680 1000" preserveAspectRatio="xMidYMid meet">
<g id="layer1" fill="#999999" stroke="none">
 <path d="M405 981 c-81 -37 -189 -153 -273 -296 -107 -182 -153 -385 -121 -535 13 -62 45 -101 104 -129 84 -40 86 -38 165 119 39 78 68 145 65 151 -4 5 -29 21 -57 35 l-51 26 6 50 c11 92 95 243 152 274 30 16 33 15 74 -5 23 -12 49 -21 58 -19 16 3 153 261 153 289 0 10 -19 24 -51 38 -65 27 -166 27 -224 2z"/>
 </g>

</svg>