<!DOCTYPE svg PUBLIC "-//W3C//DTD SVG 20010904//EN" "http://www.w3.org/TR/2001/REC-SVG-20010904/DTD/svg10.dtd">
<svg version="1.0" xmlns="http://www.w3.org/2000/svg" width="151px" height="197px" viewBox="0 0 1510 1970" preserveAspectRatio="xMidYMid meet">
<g id="layer1" fill="#666666" stroke="none">
 <path d="M0 985 l0 -985 483 0 c525 0 577 4 676 55 79 39 165 130 203 212 55 116 51 284 -8 408 -32 70 -101 145 -158 176 -25 13 -46 27 -46 30 0 4 14 9 30 13 93 18 225 116 277 203 35 60 52 148 53 270 0 125 -21 230 -61 299 -61 107 -167 201 -284 253 -99 44 -186 51 -692 51 l-473 0 0 -985z m872 595 c84 -24 138 -103 145 -210 4 -57 1 -72 -24 -120 -52 -101 -109 -120 -358 -120 l-165 0 0 230 0 230 183 0 c100 0 199 -5 219 -10z m-70 -838 c117 -58 134 -265 28 -344 -34 -24 -122 -38 -252 -38 l-108 0 0 206 0 206 143 -4 c124 -3 148 -6 189 -26z"/>
 </g>

</svg>